<?xml version="1.0" standalone="no"?><!DOCTYPE svg PUBLIC "-//W3C//DTD SVG 1.1//EN" "http://www.w3.org/Graphics/SVG/1.1/DTD/svg11.dtd"><svg t="1698832389652" class="icon" viewBox="0 0 1024 1024" version="1.1" xmlns="http://www.w3.org/2000/svg" p-id="7252" xmlns:xlink="http://www.w3.org/1999/xlink" width="32" height="32"><path d="M466.28759 411.569231l32.085333 2.363077c51.331282 1.68041 85.438359 28.882051 92.868923 77.929025l42.535385 178.018462c0.682667 3.334564 2.363077 6.380308 4.38482 9.058461l136.113231 183.059693-46.263795 29.223384-139.474051-136.717128c-24.313436-23.158154-44.898462-42.325333-53.353026-60.78359l-39.857231-144.095179-29.039589-138.056205z" fill="#636363" p-id="7253"></path><path d="M438.587077 523.080205l-42.876718 131.019487c-7.771897 21.792821-12.156718 45.659897-15.885128 78.900513l-18.904616 174.342564 43.585641 38.938257 68.529231-228.71959 107.047385-120.910769c17.591795-20.164923 23.998359-47.025231 19.245949-73.229129l-75.697231-18.852102-85.044513 18.852102v-0.341333z" fill="#9B9B9B" p-id="7254"></path><path d="M798.247385 880.797538l-32.768-30.562461-53.694359 24.523487-22.291693 102.452513c-1.68041 11.395282 12.498051 18.116923 20.611282 9.714872l88.484103-94.365539c3.019487-3.360821 3.019487-8.743385-0.341333-11.762872z m-392.743385 62.490257l-14.519795 42.299077a7.929436 7.929436 0 0 1-10.476308 5.041231L257.575385 948.985436a11.710359 11.710359 0 0 1 0.682666-22.501744l103.003898-21.845333 44.242051 38.623179z" fill="#533566" p-id="7255"></path><path d="M662.921846 538.308923c-1.050256-3.098256-1.969231-6.301538-2.861949-9.294769-0.787692-2.730667-1.522872-5.330051-2.310564-7.614359-42.719179-123.326359-130.678154-175.839179-139.710359-181.248l-0.761436-0.446359a31.691487 31.691487 0 0 1-13.495794-42.666667 31.638974 31.638974 0 0 1 42.535384-13.443282c4.726154 2.363077 117.865026 62.490256 171.218051 216.982975l1.969231 5.461333c1.470359 4.043487 2.888205 7.850667 3.780923 11.342769l10.108718 25.206154 0.236308 0.603897c2.756923 7.53559 7.850667 21.425231 6.537846 28.934564-1.706667 9.058462-16.909128 19.167179-29.722256 23.184411 0 0-16.226462 5.014974-30.06359 1.68041-10.476308-2.363077-8.769641-14.441026-8.769641-14.441026s-3.72841-3.045744-13.180718-9.741128c-12.261744-8.900923-0.131282-28.094359 4.46359-34.500923z m-203.565949-226.225231a31.245128 31.245128 0 0 1 27.936821 34.212103v0.078769l-0.026256 0.183795-0.052513 0.472615a209.526154 209.526154 0 0 1-4.332308 21.950359c-3.360821 13.206974-9.189744 31.428923-19.08841 52.512821-18.957128 40.434872-52.827897 91.267282-112.64 137.793641l-19.272205 18.537026-2.41559 2.048c-6.301538 5.303795-15.753846 13.285744-22.580513 14.756102-8.769641 1.68041-23.630769-8.402051-32.085333-18.79959 0 0-10.450051-13.128205-12.498052-26.886564-1.68041-10.765128 10.134974-13.443282 10.134975-13.443282s1.365333-4.358564 4.411077-15.438769c3.990974-15.071179 27.149128-10.397538 34.133333-8.612103 52.197744-40.172308 80.607179-83.337846 96.098462-116.263384a235.52 235.52 0 0 0 15.097436-41.485128 146.563282 146.563282 0 0 0 2.809435-13.600821l0.052513-0.393846a31.245128 31.245128 0 0 1 34.317128-27.621744z" fill="#FFC83D" p-id="7256"></path><path d="M515.938462 206.690462l10.791384 66.166153-68.214154 11.762872-10.476307-67.505231z" fill="#FCB100" p-id="7257"></path><path d="M460.537436 436.775385a353.542564 353.542564 0 0 0 35.446154-99.774359c4.069744-21.162667-12.130462-40.96-33.739487-41.984h-1.365334c-16.200205 0-24.996103 8.060718-28.01559 24.182153-1.706667 9.399795-9.452308 25.521231-13.863384 38.964513-5.067487 15.780103-11.815385 31.245128-19.902359 46.368821a5.12 5.12 0 0 0 2.363077 7.036718l51.987692 27.201641a4.831179 4.831179 0 0 0 7.089231-1.995487z" fill="#774AA6" p-id="7258"></path><path d="M496.692513 268.813128c-39.857231 9.741128-63.829333 23.525744-74.305641 80.292103-12.498051 67.846564 15.858872 174.316308 15.858872 174.316307h161.083077l-20.243693-189.44c-4.384821-40.30359-38.176821-75.881026-82.392615-65.16841z" fill="#8B62BF" p-id="7259"></path><path d="M632.779487 351.442051a359.555282 359.555282 0 0 0-83.416615-68.161641 36.286359 36.286359 0 0 0-51.987693 17.11918l-0.682666 1.339077a35.104821 35.104821 0 0 0 15.858872 41.327589c8.769641 5.014974 19.245949 11.736615 30.404923 20.821334 13.495795 10.397538 25.993846 22.16041 37.467897 34.921025 2.021744 2.363077 5.408821 2.363077 7.771898 0.341334l44.242051-39.988513c2.363077-1.995487 2.363077-5.356308 0.341333-7.719385z" fill="#A17FD5" p-id="7260"></path><path d="M481.148718 85.779692l-37.494154-0.341333a57.501538 57.501538 0 0 0-58.079179 56.766359v15.780103c0 5.041231-1.339077 10.082462-4.043488 14.441025-7.771897 12.760615-11.474051 14.099692-11.815384 20.48-0.682667 10.082462 8.769641 12.760615 13.154461 13.128205 1.365333 0.315077 2.363077 1.312821 2.363077 2.678154 0.682667 35.262359 7.089231 60.78359 49.650872 61.124923 25.993846 0.341333 67.21641-12.419282 79.031795-42.666666l11.132718-40.96 12.839385-43.008a56.923897 56.923897 0 0 0-56.740103-57.42277z" fill="#FFC83D" p-id="7261"></path><path d="M421.284103 208.449641c2.021744 0.682667 3.072 2.888205 2.363076 4.857436a20.978872 20.978872 0 0 1-26.492717 12.786872 3.833436 3.833436 0 1 1 2.520615-7.24677 13.259487 13.259487 0 0 0 16.725333-8.034461 3.859692 3.859692 0 0 1 4.883693-2.363077z" fill="#990839" p-id="7262"></path><path d="M429.239795 146.405744a4.384821 4.384821 0 0 1-2.494359-0.840206 33.083077 33.083077 0 0 0-22.370462-5.251282 3.990974 3.990974 0 0 1-4.148512-2.100512 3.964718 3.964718 0 0 1-0.446359-1.575385 4.122256 4.122256 0 0 1 3.675897-4.542359c9.977436-1.207795 20.033641 1.234051 28.30441 6.879179a4.148513 4.148513 0 0 1 1.417846 4.621129 4.148513 4.148513 0 0 1-3.938461 2.809436z" fill="#D37034" p-id="7263"></path><path d="M398.756103 160.006564s7.089231-11.762872 21.609025-9.084718a23.552 23.552 0 0 1 12.498051 7.062975c2.70441 2.363077 2.021744 6.038974-0.682666 8.060717l-10.450051 7.062975-22.974359-13.128205z" fill="#000000" p-id="7264"></path><path d="M399.753846 174.788923c-2.021744 0-4.043487-2.021744-4.043487-4.726154v-0.315077c0-10.423795 9.110974-16.462769 17.906872-16.121436 8.769641 0.315077 17.880615 6.038974 17.565538 16.436513v0.341334c0 2.70441-2.048 4.726154-4.069743 4.726153l-27.35918-0.341333z" fill="#FFFFFF" p-id="7265"></path><path d="M396.393026 174.788923c-0.341333-1.68041-0.682667-3.360821-0.682667-5.041231 0-7.719385 5.067487-13.784615 11.132718-13.784615 6.091487 0 10.817641 6.380308 10.817641 13.784615 0 1.68041-0.341333 3.360821-0.682667 5.041231h-20.585025z" fill="#7D4533" p-id="7266"></path><path d="M400.095179 174.788923a8.060718 8.060718 0 0 1-1.339076-5.041231c0-4.384821 2.70441-7.745641 6.406564-7.745641 3.387077 0 6.091487 3.702154 6.091487 8.060718 0 2.021744-1.024 3.360821-1.68041 4.726154h-9.452308z" fill="#000000" p-id="7267"></path><path d="M403.219692 164.49641c0-1.470359-0.892718-2.678154-2.021743-2.678154-1.102769 0-2.021744 1.181538-2.048 2.651898 0 1.496615 0.892718 2.70441 2.021743 2.70441 1.102769 0 2.021744-1.181538 2.048-2.678154z" fill="#FFFFFF" p-id="7268"></path><path d="M422.728205 47.47159c-19.245949-7.036718-39.515897 11.421538-44.898461 30.903795a36.286359 36.286359 0 0 0 10.450051 37.284102c3.045744 3.019487 7.089231 5.382564 12.156718 7.719385 4.043487 1.68041 8.454564 3.019487 13.180718 3.36082 9.110974 1.339077 18.221949-0.341333 25.993846-3.675897a24.155897 24.155897 0 0 1 15.202461-2.021744h0.341334c6.065231 0.997744 11.815385 4.358564 15.858872 9.399795 3.387077 4.332308 5.566359 9.347282 6.511589 14.808616 12.708103 0.498872 22.659282 10.712615 22.659282 23.47323a23.420718 23.420718 0 0 1-22.790564 23.499487l-0.28882 16.147693c-0.682667 29.223385 17.197949 55.742359 45.581128 64.827077 1.339077 0.341333 2.363077 0.65641 3.702154 1.339077l2.205538 0.525128 2.205539 0.472615c25.993846 5.723897 54.350769-9.714872 60.442256-40.30359a47.051487 47.051487 0 0 0-10.476308-39.647179c-1.68041-1.995487-3.702154-4.017231-5.40882-5.697641a28.199385 28.199385 0 0 1-8.769641-28.540718c3.045744-12.419282 5.067487-28.540718 4.726154-50.386051-0.682667-62.490256-58.079179-68.844308-96.91241-57.764103-21.005128 5.960205-27.700513 3.387077-40.907488-1.732923-3.150769-1.207795-6.616615-2.573128-10.765128-3.990974z" fill="#F1A11E" p-id="7269"></path></svg>